<svg width="250" height="250" viewBox="0 0 250 250" fill="none" xmlns="http://www.w3.org/2000/svg">
<g id="Sheets">
<g id="sheets-empty">
<g id="empty-state-container">
<g id="illustration-wrapper">
<g id="glow-bg">
<circle cx="124.667" cy="124.667" r="124.667" fill="url(#glow-gradient)"/>
</g>
<circle id="ring-outer" cx="124.667" cy="124.667" r="78.5278" stroke="#E2E8F0" stroke-width="1.83333" stroke-dasharray="4.89 4.89"/>
<g id="icon-circle">
<rect x="73.9444" y="73.9446" width="101.444" height="101.444" rx="50.7222" fill="#EFF6FF"/>
<rect x="73.9444" y="73.9446" width="101.444" height="101.444" rx="50.7222" stroke="#DBEAFE" stroke-width="1.22222"/>
<g id="file-text">
<path id="Vector" d="M129.403 103.889H112.903C111.809 103.889 110.76 104.314 109.986 105.071C109.212 105.827 108.778 106.853 108.778 107.922V140.189C108.778 141.259 109.212 142.285 109.986 143.041C110.76 143.798 111.809 144.222 112.903 144.222H137.653C138.747 144.222 139.796 143.798 140.57 143.041C141.343 142.285 141.778 141.259 141.778 140.189V115.989M129.403 103.889C130.056 103.888 130.702 104.013 131.305 104.258C131.909 104.502 132.456 104.861 132.917 105.313L140.318 112.549C140.781 112.999 141.149 113.536 141.4 114.126C141.65 114.717 141.779 115.35 141.778 115.989M129.403 103.889V113.972C129.403 114.507 129.62 115.02 130.007 115.398C130.394 115.777 130.918 115.989 131.465 115.989L141.778 115.989M121.153 118.006H117.028M133.528 126.072H117.028M133.528 134.139H117.028" stroke="#2563EB" stroke-width="2.44444" stroke-linecap="round"/>
</g>
</g>
<g id="sparkle-one">
<rect x="39.1111" y="44.0003" width="51.3333" height="51.3334" rx="17.111" fill="url(#badge-shadow-gradient)"/>
<rect x="48.8889" y="48.8892" width="31.7778" height="31.7778" rx="9.77778" fill="white" shape-rendering="crispEdges"/>
<g id="star" clip-path="url(#clip0_0_1)">
<path id="Vector_2" d="M64.5734 57.501C64.5119 57.5378 64.4623 57.5903 64.4301 57.6527L62.737 60.9511C62.6253 61.1684 62.4604 61.3563 62.2564 61.4988C62.0524 61.6412 61.8155 61.7339 61.566 61.7688L57.7787 62.301C57.7066 62.3108 57.6388 62.3399 57.5831 62.3849C57.5273 62.4299 57.4859 62.4891 57.4634 62.5556C57.4409 62.6222 57.4384 62.6935 57.456 62.7614C57.4736 62.8293 57.5107 62.891 57.5631 62.9397L60.3026 65.5035C60.4834 65.6728 60.6187 65.8818 60.6967 66.1126C60.7748 66.3433 60.7933 66.5889 60.7506 66.8281L60.1046 70.4507C60.092 70.5196 60.0998 70.5904 60.1271 70.6553C60.1543 70.7201 60.2 70.7763 60.2588 70.8174C60.3176 70.8585 60.3873 70.883 60.4598 70.8879C60.5324 70.8929 60.6049 70.8782 60.6692 70.8454L64.0547 69.1339C64.2778 69.0212 64.526 68.9624 64.7781 68.9624C65.0301 68.9624 65.2783 69.0212 65.5014 69.1339L68.8876 70.8454C68.952 70.8784 69.0246 70.8932 69.0973 70.8884C69.1699 70.8835 69.2397 70.8591 69.2987 70.8179C69.3576 70.7768 69.4033 70.7205 69.4306 70.6556C69.4579 70.5907 69.4657 70.5197 69.453 70.4507L68.8063 66.8273C68.7638 66.5883 68.7824 66.3429 68.8604 66.1123C68.9384 65.8817 69.0736 65.6727 69.2543 65.5035L71.9938 62.939C72.0457 62.8903 72.0824 62.8286 72.0998 62.7609C72.1172 62.6932 72.1145 62.6222 72.092 62.5559C72.0696 62.4896 72.0283 62.4307 71.9729 62.3857C71.9174 62.3408 71.85 62.3117 71.7782 62.3017L67.9901 61.7688C67.7409 61.7336 67.5043 61.6408 67.3006 61.4984C67.0969 61.356 66.9322 61.1682 66.8206 60.9511L65.1267 57.6527C65.0946 57.5903 65.0449 57.5378 64.9834 57.501C64.9219 57.4643 64.8509 57.4448 64.7784 57.4448C64.706 57.4448 64.635 57.4643 64.5734 57.501Z" stroke="#F59E0B" stroke-width="2.44444" stroke-linecap="round"/>
</g>
</g>
<g id="sparkle-two">
<rect x="166.222" y="144.222" width="51.3333" height="51.3334" rx="17.111" fill="url(#badge-shadow-gradient)"/>
<rect x="176" y="149.111" width="31.7778" height="31.7778" rx="9.77778" fill="white" shape-rendering="crispEdges"/>
<g id="shield-check" clip-path="url(#clip1_0_1)">
<path id="Vector_3" d="M189.215 164.999L190.59 166.466L193.34 163.533M196.778 165.733C196.778 169.399 194.372 171.232 191.512 172.295C191.362 172.349 191.199 172.346 191.051 172.288C188.184 171.232 185.778 169.399 185.778 165.733V160.6C185.778 160.406 185.85 160.219 185.979 160.082C186.108 159.944 186.283 159.867 186.465 159.867C187.84 159.867 189.559 158.987 190.755 157.873C190.901 157.74 191.086 157.667 191.278 157.667C191.469 157.667 191.655 157.74 191.8 157.873C193.003 158.994 194.715 159.867 196.09 159.867C196.273 159.867 196.447 159.944 196.576 160.082C196.705 160.219 196.778 160.406 196.778 160.6V165.733Z" stroke="#10B981" stroke-width="2.44444" stroke-linecap="round"/>
</g>
</g>
</g>
</g>
</g>
</g>
<defs>
<radialGradient id="glow-gradient" cx="0" cy="0" r="1" gradientUnits="userSpaceOnUse" gradientTransform="translate(124.667 124.667) rotate(90) scale(124.667)">
<stop offset="0.62" stop-color="#3B82F6" stop-opacity="0.0784314"/>
<stop offset="1" stop-color="#3B82F6" stop-opacity="0"/>
</radialGradient>
<radialGradient id="badge-shadow-gradient" cx="0" cy="0" r="1" gradientUnits="objectBoundingBox" gradientTransform="translate(0.5 0.5) rotate(90) scale(0.5)">
<stop offset="0.58" stop-color="#0F172A" stop-opacity="0.0313726"/>
<stop offset="1" stop-color="#0F172A" stop-opacity="0"/>
</radialGradient>
<clipPath id="clip0_0_1">
<rect width="17.1111" height="17.1111" fill="white" transform="translate(56.2222 56.2227)"/>
</clipPath>
<clipPath id="clip1_0_1">
<rect width="17.1111" height="17.1111" fill="white" transform="translate(183.333 156.445)"/>
</clipPath>
</defs>
</svg>
